<svg width="24" height="24" viewBox="0 0 24 24" fill="none" xmlns="http://www.w3.org/2000/svg">
<path fill-rule="evenodd" clip-rule="evenodd" d="M11.4996 17.25C12.19 17.25 12.7496 17.8096 12.7496 18.5C12.7496 19.1904 12.19 19.75 11.4996 19.75C10.8094 19.7499 10.2496 19.1903 10.2496 18.5C10.2496 17.8097 10.8094 17.2501 11.4996 17.25ZM15.6422 7.0293C16.1782 6.89663 16.7203 7.22381 16.8532 7.75977C16.9494 8.14816 16.9996 8.55044 16.9996 8.95801C16.9996 11.3233 15.0582 12.6235 13.4127 13.3975C13.0547 13.566 12.8227 13.8604 12.7565 14.1748L12.6452 14.7061C12.5314 15.2464 12.0009 15.5921 11.4606 15.4785C10.9203 15.3646 10.5744 14.8343 10.6881 14.2939L10.7995 13.7627C11.0098 12.7636 11.7057 11.9908 12.5621 11.5879C14.1598 10.8363 14.9996 10.0225 14.9996 8.95801C14.9996 8.71461 14.9695 8.47342 14.9118 8.24023C14.7792 7.70436 15.1064 7.16221 15.6422 7.0293ZM11.9996 4C12.4286 4 12.8423 4.04963 13.235 4.14453C13.7716 4.27442 14.101 4.81487 13.9713 5.35156C13.8416 5.88836 13.3011 6.21861 12.7643 6.08887C12.5282 6.03187 12.273 6 11.9996 6C11.2179 6.00005 10.6494 6.22464 10.192 6.60742C9.71288 7.00869 9.29147 7.63793 8.9264 8.54102C8.7194 9.05299 8.13665 9.30071 7.62465 9.09375C7.11295 8.88663 6.86604 8.30386 7.07289 7.79199C7.50773 6.71622 8.08719 5.76144 8.90785 5.07422C9.75028 4.3689 10.782 4.00005 11.9996 4Z" fill="#FFF2DA"/>
</svg>
